# xmcd CD database file
#
# Track frame offsets:
#	150
#	25237
#	50812
#	79350
#	98512
#	124087
#	146175
#	172237
#
# Disc length: 2685 seconds
#
# Revision: 1
# Processed by: cddbd v1.5.1PL0 Copyright (c) Steve Scherf et al.
# Submitted via: CDex 1.51
#
DISCID=720a7b08
DTITLE=Trio Pim Jacobs - Come fly with me
DYEAR=1991
DGENRE=Jazz
TTITLE0=I've got the world on a string
TTITLE1=Spring will be a little late this year
TTITLE2=Come fly with me
TTITLE3=Autumn leaves
TTITLE4=Who can I turn to
TTITLE5=I love you
TTITLE6=Body and soul
TTITLE7=Sultry serenade
EXTD=YEAR: 1991
EXTT0=
EXTT1=
EXTT2=
EXTT3=
EXTT4=
EXTT5=
EXTT6=
EXTT7=
PLAYORDER=
